# xmcd
#
# Track frame offsets: 
#        150
#        29249
#        64375
#        92448
#        121888
#        134330
#        158383
#        180804
#        207336
#
# Disc length: 3315 seconds
#
# Revision: 0
# Processed by: cddbd v1.5.2PL0 Copyright (c) Steve Scherf et al.
# Submitted via: ExactAudioCopy v0.95b4
#
DISCID=720cf109
DTITLE=Dave Brubeck - The Dave Brubeck Collection (2)
DYEAR=2005
DGENRE=Jazz
TTITLE0=Stardust
TTITLE1=Perdido
TTITLE2=Pennies from heaven
TTITLE3=These foolish things
TTITLE4=The duke
TTITLE5=Stompin for Mili
TTITLE6=Jeepers Creepers
TTITLE7=For all we know
TTITLE8=All the things you are
EXTD=
EXTT0=
EXTT1=
EXTT2=
EXTT3=
EXTT4=
EXTT5=
EXTT6=
EXTT7=
EXTT8=
PLAYORDER=
